<?xml version="1.0" encoding="utf-8" ?>
<svg xmlns="http://www.w3.org/2000/svg" xmlns:xlink="http://www.w3.org/1999/xlink" width="512" height="512">
	<path transform="scale(0.666667 0.666667)" d="M359.629 298.774L360.238 296.437C362.512 289.358 367.76 286.516 373.463 282.562C372.884 282.235 372.921 282.161 372.23 282.209C370.767 282.311 369.018 281.661 367.567 281.387L353.442 278.534C333.88 273.934 315.039 267.998 297.485 257.968C286.949 251.949 276.774 243.985 267.939 235.68C267.616 235.377 267.455 235.142 267.032 235.013C266.203 240.873 266.294 247.161 266.796 253.058L267.009 253.33C269.993 257.207 271.862 261.916 274.083 266.25L286.589 292.849C289.318 298.983 292.968 305.075 295.275 311.364L319.296 361.598L345.678 417.873C330.305 437.202 305.796 451.531 281.118 454.316C251.918 457.612 221.891 450.806 198.843 431.9C193.665 427.652 187.939 423.1 183.634 417.996C189.397 402.81 197.08 388.075 203.779 373.259L234.48 305.123L247.205 276.756L252.197 266.216C255.373 258.874 254.192 251.105 254.174 243.314L254.123 223.371C254.074 220.127 253.461 216.302 254.005 213.117C254.284 211.484 254.629 210.15 256.254 209.477C257.47 208.974 258.907 209.069 260.062 209.652C261.578 210.416 262.638 212.044 263.649 213.355C265.888 216.261 267.919 219.154 270.458 221.827C277.284 229.013 284.833 235.247 292.859 241.061C302.632 248.14 314.158 253.96 325.595 257.772L334.873 260.817C336.983 261.465 339.154 261.866 341.16 262.806C338.617 257.474 335.677 252.291 334.594 246.404C334.267 244.629 333.724 242.932 333.513 241.125C332.245 230.278 334.018 218.621 339.376 209.062C345.296 198.5 356.41 188.461 368.214 185.051C372.669 183.764 377.091 182.62 381.747 182.336C390.264 181.818 400.036 184.608 407.369 188.798C415.103 193.216 423.006 200.711 427.004 208.688C428.219 211.111 429.592 213.496 430.373 216.079C431.159 218.68 432.425 221.007 432.97 223.736C433.253 225.159 433.02 226.574 433.146 228C433.26 229.28 433.748 230.505 433.763 231.798C433.78 233.153 433.428 234.476 433.327 235.821C433.17 237.923 433.273 240.091 432.97 242.174C432.355 246.408 430.568 251.31 428.883 255.208L425.609 262.752C448.337 258.068 469.438 246.605 487.293 232.012C493.227 227.163 499.796 221.208 504 214.735C505.704 212.112 507.095 209.691 510.188 208.61C511.669 208.692 512.435 208.944 513.64 209.812C514.86 212.239 514.132 217.332 514.122 220.185L514.087 249.978L514.072 257.825C514.048 259.923 513.706 261.831 514.688 263.735L534.346 306.271L547.717 336.133C549.488 340.148 551.838 344.248 553.194 348.379C553.68 349.86 554.609 351.235 555.205 352.691L564.01 372.188L574.612 395.911C576.648 400.201 578.796 404.465 580.404 408.938C581.601 412.268 583.047 414.972 583.471 418.556C579.527 423.411 574.532 428.201 569.413 431.815C566.631 433.78 564.139 436.063 561.226 437.906C537.852 452.69 512.26 458.098 484.919 453.655C468.242 450.945 452.907 445.147 439.302 435.052C436.014 432.613 432.992 429.683 430.025 426.869C427.352 424.334 423.801 421.582 421.775 418.56C421.395 417.994 421.295 417.94 421.463 417.291C422.812 412.092 426.088 406.972 428.438 402.139L440.904 376.312L469.055 317.527L488.731 275.944C491.504 270.349 494.463 264.811 497.761 259.507L500.578 255.188C500.854 254.805 501.928 253.696 502.022 253.307C502.324 252.066 501.995 249.783 501.985 248.452C501.952 244.229 502.242 239.789 501.709 235.606L477.055 253.365C464.377 261.796 449.504 268.486 435 273.006C427.732 275.271 420.344 276.814 412.922 278.455L401.396 281.062C399.188 281.617 397.101 282.488 394.785 282.301L394.688 282.481L395.054 282.691C399.325 285.174 404.369 288.79 405.937 293.777L406.105 294.639C406.346 295.977 407.018 297.221 407.277 298.579C408.58 305.394 407.72 312.01 403.818 317.859C400.485 322.854 395.242 325.854 389.744 327.877C389.108 328.111 389.342 327.965 388.903 328.408L389.597 352.189L391.135 379.875L391.112 401.656C391.45 415.125 392.953 429.222 395.237 442.444L396.931 451.516C397.293 453.348 397.277 454.794 397.894 456.636C398.755 459.208 399.776 462.773 400.142 465.439C400.301 466.593 400.918 467.599 401.274 468.701C402.458 472.373 403.609 475.948 405.263 479.445C407.537 484.252 409.478 488.937 412.378 493.456C423.855 511.34 441.772 524.858 461.62 532.155C464.935 533.374 468.391 534.519 471.806 535.425C478.949 537.321 487.708 538.179 491.607 545.476L490.863 555.628C501.174 556.98 511.573 556.041 521.929 555.93C525.313 555.893 528.975 555.511 532.312 556.093C533.699 556.335 534.932 556.941 535.833 558.039C536.829 559.252 537.516 560.898 537.351 562.487C537.183 564.104 536.583 565.539 535.312 566.597C534.237 567.493 532.548 567.857 531.188 567.961C527.331 568.253 523.462 567.752 519.602 567.731L491.292 567.746C491.273 571.111 491.581 574.468 489.053 577.089C487.543 578.655 485.578 580.066 483.375 580.36C478.983 580.947 474.023 580.527 469.571 580.53L442.594 580.54L356.448 580.507L313.007 580.437L293.716 580.567C290.412 580.558 286.85 580.789 283.589 580.256C281.581 579.927 279.704 578.923 278.232 577.523C277.166 576.509 275.848 574.983 275.36 573.562C275.116 572.851 274.589 568.677 274.428 568.532C273.943 568.098 269.758 568.087 268.995 568.075L244.945 568.064C241.811 568.066 238.032 568.473 234.954 567.934C233.713 567.716 232.411 567.131 231.5 566.246C230.538 565.311 229.902 563.847 229.91 562.5C229.921 560.78 230.657 558.786 231.941 557.623C234.608 555.206 242.828 555.941 246.311 556.269C251.657 556.773 257.273 556.422 262.655 556.401C266.951 556.385 271.568 556.742 275.801 556.101C275.496 551.534 274.311 545.368 277.622 541.67C281.624 537.203 289.404 536.689 294.844 535.265C298.601 534.282 302.526 533.1 306.136 531.684C315.911 527.849 325.175 523.113 333.393 516.524C336.606 513.948 339.585 510.774 342.36 507.739C357.635 491.032 366.534 469.607 370.965 447.562C371.987 442.477 373.185 437.199 373.694 432.035L378.918 328.239C371.138 325.72 365.344 322.064 361.542 314.49C360.66 312.735 359.906 310.737 359.576 308.793C358.677 305.307 358.665 302.243 359.629 298.774ZM498.609 321.268L497.394 321.42C496.793 322.276 496.482 323.189 496.124 324.16L495.75 324.188C495.623 323.466 495.635 323.355 495.834 322.693L495.523 322.318C495.162 321.876 495.265 322.07 495.117 321.718L476.991 370.93L475.266 375.488L464.47 404.977C463.268 408.213 462.158 413.032 460.231 415.813L460.122 415.988L460.135 416.043L460.875 416.407L462.375 415.684L463.213 416.202C464.935 415.784 466.689 416.144 468.499 415.682L571.329 415.505C570.106 411.292 567.704 407.22 565.906 403.215L552.519 373.634L512.255 285.444L498.609 321.268ZM302.803 415.73L285.827 368.347L265.772 312.471L259.643 295.384C258.394 291.91 257.339 288.369 255.636 285.078L255.512 285.43L197.341 415.114C201.303 415.678 205.329 415.597 209.323 415.642L227.054 415.709L281.054 415.698L295.722 415.682C298.018 415.676 300.541 415.406 302.803 415.73ZM384.161 437.062C383.874 438.282 383.602 439.452 383.503 440.703C383.209 444.426 381.738 448.69 381.01 452.438C375.639 480.095 362.635 506.445 340.874 524.817C331.251 532.942 318.303 540.205 306.061 543.332L294.938 546.007C292.885 546.464 289.827 546.844 288.046 547.993C287.719 548.204 287.658 548.34 287.463 548.625C288.204 549.282 289.165 549.359 290.121 549.431C293.625 549.697 297.234 549.551 300.75 549.587L324.029 549.646L384.094 549.687L447.293 549.593C458.357 549.622 469.759 551.041 480.668 549.118C476.076 546.799 471.981 546.419 467.075 545.216C462.297 544.044 457.398 542.519 452.812 540.724C422.732 528.95 401.094 503.658 391.265 473.235C388.651 465.144 387.003 456.729 385.737 448.332C385.179 444.631 384.979 440.686 384.161 437.062ZM379.367 193.943C376.56 194.546 373.743 195.068 371.062 196.119L364.337 199.158C355.258 203.909 347.84 213.555 344.85 223.248C343.504 227.609 342.247 233.086 343.548 237.582L346.249 247.607C346.873 249.544 348.308 251.423 349.191 253.288C350.015 255.029 351.379 256.493 352.635 257.939C356.873 262.816 362.222 266.738 368.344 268.891C374.986 271.226 381.467 271.593 388.426 271.551C398.551 269.029 408.647 265.205 414.765 256.125C420.356 247.827 425.06 237.518 423.099 227.196C420.882 215.524 413.307 206.463 403.5 200.203C398.417 196.959 392.229 194.69 386.23 194.059C383.944 193.818 381.655 194.015 379.367 193.943ZM288.341 366.239C287.309 366.672 287.247 367.009 286.546 367.786L285.827 368.347L302.803 415.73C303.694 415.705 304.073 415.538 304.851 416.016L305.616 415.938C308.605 415.28 312.438 415.661 315.529 415.637L333.004 415.415C331.971 411.961 330.06 408.72 328.506 405.478L319.806 387.276L287.061 319.406L272.82 288.223C269.98 281.831 267.515 275.172 263.899 269.19C262.03 272.86 260.389 276.646 258.075 280.06L288.341 366.239ZM460.122 415.988L460.231 415.813C462.158 413.032 463.268 408.213 464.47 404.977L475.266 375.488L476.991 370.93L495.117 321.718L510.36 279.876L504.352 270.08C502.133 273.131 500.496 276.444 498.712 279.75C494.015 288.458 490.267 297.621 486.099 306.584L461.181 358.966L441.461 399.787L436.097 410.236C435.235 411.824 434.107 413.395 433.405 415.047C440.182 416.135 447.873 415.563 454.78 415.743C456.451 415.786 458.549 415.415 460.122 415.988ZM288.751 558.957L285.857 559.2C285.629 562.909 286.131 566.739 286.263 570.466L478.556 570.847L480.25 570.188L480.884 568.247C481.877 565.13 481.468 562.01 481.915 558.819L438.318 558.699L356.242 558.698L310.746 558.707C303.669 558.709 295.728 558.021 288.751 558.957ZM218.535 424.706L207.328 425.32C215.478 430.829 224.433 435.97 233.71 439.33C250.286 445.333 268.112 445.974 285.333 442.654C291.425 441.479 297.747 438.911 303.459 436.52L323.15 425.033L218.535 424.706ZM516.754 424.663L516.24 424.72C506.73 425.699 496.704 424.823 487.125 424.981L456.562 425.279C452.299 425.316 447.947 425.86 443.698 425.46C457.175 435.006 473.581 441.293 489.829 443.876C497.05 444.471 504.638 444.804 511.875 444.255C528.68 442.982 547.663 436.686 560.597 425.527L561.005 425.127C557.772 425.257 554.576 424.921 551.34 424.919L531.705 424.911C526.82 424.763 521.618 424.081 516.754 424.663ZM379.817 292.244C375.403 294.127 372.172 296.591 370.511 301.312C369.587 303.94 370.898 306.76 372.173 309.08C374.123 312.626 377.203 315.183 381.234 316.227C382.86 316.649 384.935 316.681 386.552 316.221C391.047 314.595 393.926 312.693 396.017 308.25C397.114 305.919 396.922 301.632 395.876 299.322C395.578 298.662 395.144 298.102 394.734 297.512L394.429 297.057C393.031 295.03 390.534 292.818 388.07 292.34C385.507 291.843 382.399 291.934 379.817 292.244ZM359.629 298.774C358.665 302.243 358.677 305.307 359.576 308.793L359.884 308.158C360.469 306.803 359.932 305.345 359.919 303.938C359.901 302.027 360.319 300.641 359.629 298.774Z"/>
	<path transform="scale(0.666667 0.666667)" d="M359.629 298.774C360.319 300.641 359.901 302.027 359.919 303.938C359.932 305.345 360.469 306.803 359.884 308.158L359.576 308.793C358.677 305.307 358.665 302.243 359.629 298.774Z"/>
	<path transform="scale(0.666667 0.666667)" d="M288.341 366.239L305.616 415.938L304.851 416.016C304.073 415.538 303.694 415.705 302.803 415.73L285.827 368.347L286.546 367.786C287.247 367.009 287.309 366.672 288.341 366.239Z"/>
	<defs>
		<linearGradient id="gradient_0" gradientUnits="userSpaceOnUse" x1="478.28699" y1="373.72101" x2="476.51401" y2="372.45801">
			<stop offset="0" stop-color="black" stop-opacity="0.94901961"/>
			<stop offset="1" stop-color="#010000" stop-opacity="0.98431373"/>
		</linearGradient>
	</defs>
	<path fill="url(#gradient_0)" transform="scale(0.666667 0.666667)" d="M476.991 370.93C478.641 370.567 477.904 369.752 479.062 369.184L479.344 370.406C479.666 369.928 479.966 369.831 480.492 369.637L476.877 379.397L476.545 378.87L476.139 378.938C475.767 378.799 476.303 377.785 476.278 377.438C476.25 377.039 475.483 375.904 475.266 375.488L476.991 370.93Z"/>
	<path transform="scale(0.666667 0.666667)" d="M475.266 375.488C475.483 375.904 476.25 377.039 476.278 377.438C476.303 377.785 475.767 378.799 476.139 378.938L476.545 378.87L476.877 379.397L463.514 415.48L468.499 415.682C466.689 416.144 464.935 415.784 463.213 416.202L462.375 415.684L460.875 416.407L460.135 416.043L460.122 415.988L460.231 415.813C462.158 413.032 463.268 408.213 464.47 404.977L475.266 375.488Z"/>
	<path transform="scale(0.666667 0.666667)" d="M495.117 321.718C495.265 322.07 495.162 321.876 495.523 322.318L495.834 322.693C495.635 323.355 495.623 323.466 495.75 324.188L496.124 324.16C496.482 323.189 496.793 322.276 497.394 321.42L498.609 321.268L484.162 359.812L481.242 367.787C481.091 368.186 480.789 369.371 480.492 369.637C479.966 369.831 479.666 369.928 479.344 370.406L479.062 369.184C477.904 369.752 478.641 370.567 476.991 370.93L495.117 321.718Z"/>
</svg>
